<?xml version="1.0" encoding="UTF-8"?>
<svg width="76px" height="65px" viewBox="0 0 76 65" version="1.1" xmlns="http://www.w3.org/2000/svg" xmlns:xlink="http://www.w3.org/1999/xlink">
    <!-- Generator: Sketch 52.2 (67145) - http://www.bohemiancoding.com/sketch -->
    <title>Group 2</title>
    <desc>Created with Sketch.</desc>
    <g id="Page-1" stroke="none" stroke-width="1" fill="none" fill-rule="evenodd">
        <g id="会议管理首页" transform="translate(-337.000000, -194.000000)" fill-rule="nonzero">
            <g id="Group-2" transform="translate(337.000000, 194.000000)">
                <rect id="Rectangle" fill="#2979D0" x="13" y="0" width="50" height="65" rx="2"></rect>
                <rect id="Rectangle" fill="#FFFFFF" x="26" y="17" width="18" height="4" rx="1"></rect>
                <rect id="Rectangle-Copy" fill="#FFFFFF" x="26" y="31" width="24" height="4" rx="1"></rect>
                <rect id="Rectangle-Copy" fill="#FFFFFF" x="26" y="45" width="24" height="4" rx="1"></rect>
                <path d="M4,9 L10,9 L10,56 L4,56 C1.790861,56 2.705415e-16,54.209139 0,52 L0,13 C-2.705415e-16,10.790861 1.790861,9 4,9 Z" id="Rectangle" fill="#2979D0" opacity="0.600000024"></path>
                <path d="M70,9 L76,9 L76,56 L70,56 C67.790861,56 66,54.209139 66,52 L66,13 C66,10.790861 67.790861,9 70,9 Z" id="Rectangle" fill="#2979D0" opacity="0.600000024" transform="translate(71.000000, 32.500000) scale(-1, 1) translate(-71.000000, -32.500000) "></path>
            </g>
        </g>
    </g>
</svg>