<?xml version="1.0" encoding="UTF-8"?>
<svg width="40px" height="40px" viewBox="0 0 40 40" version="1.1" xmlns="http://www.w3.org/2000/svg" xmlns:xlink="http://www.w3.org/1999/xlink">
    <!-- Generator: Sketch 52.2 (67145) - http://www.bohemiancoding.com/sketch -->
    <title>ic_我的党费_未选择</title>
    <desc>Created with Sketch.</desc>
    <g id="Page-1" stroke="none" stroke-width="1" fill="none" fill-rule="evenodd">
        <g id="Artboard" transform="translate(-633.000000, -54.000000)" stroke="#888888" stroke-width="3">
            <g id="ic_我的党费_未选择" transform="translate(635.000000, 56.000000)">
                <path d="M36,31.035375 C36,29.140875 34.6564286,27.448875 32.6198571,26.805375 C29.628,25.85925 24.6934286,24.75 18,24.75 C11.3065714,24.75 6.372,25.85925 3.38014286,26.805375 C1.34357143,27.448875 0,29.140875 0,31.035375 L0,36 L36,36 L36,31.035375 Z" id="Shape" stroke-linecap="round" stroke-linejoin="round"></path>
                <path d="M18,20.25 C13.0294286,20.25 9,16.2835313 9,11.390625 L9,8.859375 C9,3.96646875 13.0294286,0 18,0 C22.9705714,0 27,3.96646875 27,8.859375 L27,11.390625 C27,16.2835313 22.9705714,20.25 18,20.25 Z" id="Shape" stroke-linecap="square"></path>
            </g>
        </g>
    </g>
</svg>