<?xml version="1.0" encoding="UTF-8"?>
<svg width="76px" height="70px" viewBox="0 0 76 70" version="1.1" xmlns="http://www.w3.org/2000/svg" xmlns:xlink="http://www.w3.org/1999/xlink">
    <!-- Generator: Sketch 52.2 (67145) - http://www.bohemiancoding.com/sketch -->
    <title>Group 6</title>
    <desc>Created with Sketch.</desc>
    <g id="Page-1" stroke="none" stroke-width="1" fill="none" fill-rule="evenodd">
        <g id="会议管理首页" transform="translate(-105.000000, -192.000000)" fill-rule="nonzero">
            <g id="Group-6" transform="translate(105.000000, 192.000000)">
                <rect id="Rectangle" fill="#EA8B24" x="6" y="0" width="64" height="43" rx="2"></rect>
                <rect id="Rectangle" fill="#FFFFFF" x="16" y="13" width="18" height="4" rx="1"></rect>
                <rect id="Rectangle-Copy" fill="#FFFFFF" x="16" y="27" width="24" height="4" rx="1"></rect>
                <rect id="Rectangle" fill="#F2B97C" x="0" y="46" width="76" height="8" rx="2"></rect>
                <path d="M51.2404023,54.806519 L69.5083515,53.9861494 C70.6118088,53.9365957 71.5465089,54.7909536 71.5960626,55.8944109 C71.5974048,55.9243004 71.5980762,55.9542162 71.5980762,55.9841357 L71.5980762,59.9801044 C71.5980762,61.0497831 70.7564027,61.9301024 69.687801,61.9780907 L51.4198518,62.7984603 C50.3163944,62.848014 49.3816943,61.9936561 49.3321407,60.8901987 C49.3307984,60.8603093 49.330127,60.8303935 49.330127,60.800474 L49.330127,56.8045053 C49.330127,55.7348266 50.1718005,54.8545073 51.2404023,54.806519 Z" id="Rectangle" fill="#F2B97C" transform="translate(60.464102, 58.392305) rotate(60.000000) translate(-60.464102, -58.392305) "></path>
                <path d="M6.24040226,54.806519 L24.5083515,53.9861494 C25.6118088,53.9365957 26.5465089,54.7909536 26.5960626,55.8944109 C26.5974048,55.9243004 26.5980762,55.9542162 26.5980762,55.9841357 L26.5980762,59.9801044 C26.5980762,61.0497831 25.7564027,61.9301024 24.687801,61.9780907 L6.41985178,62.7984603 C5.31639438,62.848014 4.38169428,61.9936561 4.33214067,60.8901987 C4.3307984,60.8603093 4.33012702,60.8303935 4.33012702,60.800474 L4.33012702,56.8045053 C4.33012702,55.7348266 5.17180052,54.8545073 6.24040226,54.806519 Z" id="Rectangle" fill="#F2B97C" transform="translate(15.464102, 58.392305) scale(-1, 1) rotate(60.000000) translate(-15.464102, -58.392305) "></path>
            </g>
        </g>
    </g>
</svg>