<?xml version="1.0" encoding="UTF-8"?>
<svg width="41px" height="44px" viewBox="0 0 41 44" version="1.1" xmlns="http://www.w3.org/2000/svg" xmlns:xlink="http://www.w3.org/1999/xlink">
    <!-- Generator: Sketch 52.2 (67145) - http://www.bohemiancoding.com/sketch -->
    <title>ic_内容管理_选中 copy</title>
    <desc>Created with Sketch.</desc>
    <g id="Page-1" stroke="none" stroke-width="1" fill="none" fill-rule="evenodd">
        <g id="Artboard" transform="translate(-45.000000, -131.000000)">
            <g id="ic_内容管理_选中-copy" transform="translate(45.000000, 131.000000)">
                <path d="M3,26.5 C2.17157288,26.5 1.5,27.1715729 1.5,28 L1.5,41 C1.5,41.8284271 2.17157288,42.5 3,42.5 L38,42.5 C38.8284271,42.5 39.5,41.8284271 39.5,41 L39.5,28 C39.5,27.1715729 38.8284271,26.5 38,26.5 L31.4533356,26.5 C30.9202814,26.5 30.427272,26.7828968 30.1582977,27.2431137 L28.4862503,30.1039988 C27.6793275,31.4846495 26.2002992,32.3333399 24.6011367,32.3333399 L16.236394,32.3333399 C14.6167981,32.3333399 13.1221378,31.4630092 12.3227394,30.0544449 L10.7366072,27.2596317 C10.4701411,26.7901102 9.97192098,26.5 9.43205566,26.5 L3,26.5 Z" id="矩形" stroke="#2979D0" stroke-width="3"></path>
                <path d="M5.5,26.5 L35.5,26.5 L35.5,3 C35.5,2.17157288 34.8284271,1.5 34,1.5 L7,1.5 C6.17157288,1.5 5.5,2.17157288 5.5,3 L5.5,26.5 Z" id="路径" stroke="#2979D0" stroke-width="3"></path>
                <path d="M14.5,14 L26.5,14 C27.3284271,14 28,14.6715729 28,15.5 L28,15.5 C28,16.3284271 27.3284271,17 26.5,17 L14.5,17 C13.6715729,17 13,16.3284271 13,15.5 L13,15.5 C13,14.6715729 13.6715729,14 14.5,14 Z" id="矩形" fill="#2979D0"></path>
                <path d="M14.5,7 L26.5,7 C27.3284271,7 28,7.67157288 28,8.5 L28,8.5 C28,9.32842712 27.3284271,10 26.5,10 L14.5,10 C13.6715729,10 13,9.32842712 13,8.5 L13,8.5 C13,7.67157288 13.6715729,7 14.5,7 Z" id="矩形-copy-2" fill="#2979D0"></path>
                <rect id="矩形-copy" fill="#2979D0" x="13" y="21" width="15" height="3" rx="1.5"></rect>
            </g>
        </g>
    </g>
</svg>