<?xml version="1.0" encoding="UTF-8"?>
<svg width="80px" height="80px" viewBox="0 0 80 80" version="1.1" xmlns="http://www.w3.org/2000/svg" xmlns:xlink="http://www.w3.org/1999/xlink">
    <!-- Generator: Sketch 52.2 (67145) - http://www.bohemiancoding.com/sketch -->
    <title>word</title>
    <desc>Created with Sketch.</desc>
    <g id="Page-1" stroke="none" stroke-width="1" fill="none" fill-rule="evenodd">
        <g id="会议管理首页-编辑会议纪要" transform="translate(-30.000000, -1010.000000)">
            <g id="Group-3" transform="translate(0.000000, 794.000000)">
                <g id="word" transform="translate(30.000000, 216.000000)">
                    <g>
                        <rect id="Rectangle-53-Copy-6" fill="#2979D0" x="0" y="0" width="80" height="80" rx="2"></rect>
                        <path d="M23.0645777,17.3333333 C21.862978,17.3333333 20.8888889,18.3140271 20.8888889,19.5153002 L20.8888889,59.1513665 C20.8888889,60.3564335 21.8640382,61.3333333 23.0645777,61.3333333 L57.3798667,61.3333333 C58.5814665,61.3333333 59.5555556,60.3526395 59.5555556,59.1513665 L59.5555556,19.5153002 C59.5555556,18.3102332 58.5804062,17.3333333 57.3798667,17.3333333 L23.0645777,17.3333333 Z" id="Combined-Shape" fill="#FFFFFF"></path>
                        <rect id="Rectangle-156" fill="#2E5EA6" x="28.8888889" y="26.6666667" width="22.6666667" height="2.22222222"></rect>
                        <rect id="Rectangle-156-Copy" fill="#2E5EA6" x="28.8888889" y="34.6666667" width="22.6666667" height="2.22222222"></rect>
                        <rect id="Rectangle-156-Copy-2" fill="#2E5EA6" x="28.8888889" y="40" width="22.6666667" height="2.22222222"></rect>
                        <polygon id="Rectangle-156-Copy-4" fill="#2E5EA6" points="28.8888889 45.3333333 46.2222222 45.3333333 46.2222222 47.5555556 28.8888889 47.5555556"></polygon>
                    </g>
                </g>
            </g>
        </g>
    </g>
</svg>